<?xml version="1.0" standalone="no"?>
<!DOCTYPE svg PUBLIC "-//W3C//DTD SVG 20010904//EN"
 "http://www.w3.org/TR/2001/REC-SVG-20010904/DTD/svg10.dtd">
<svg version="1.0" xmlns="http://www.w3.org/2000/svg"
 width="300.000000pt" height="300.000000pt" viewBox="0 0 300.000000 300.000000"
 preserveAspectRatio="xMidYMid meet">
<g transform="translate(0.000000,300.000000) scale(0.100000,-0.100000)"
fill="#000000" stroke="none">
<path d="M1382 2109 c-249 -44 -523 -224 -742 -486 -56 -68 -80 -104 -80 -123
0 -34 129 -191 241 -292 436 -396 843 -428 1278 -101 149 112 361 343 361 393
0 34 -130 191 -241 292 -229 208 -448 314 -669 323 -52 2 -119 0 -148 -6z
m292 -56 c175 -39 383 -171 562 -355 118 -122 154 -168 154 -198 0 -55 -228
-289 -392 -401 -285 -195 -551 -225 -834 -94 -130 59 -250 149 -394 295 -74
75 -143 149 -152 166 -15 27 -15 32 -1 62 26 53 228 257 335 337 245 185 473
244 722 188z"/>
<path d="M1340 2020 c-173 -46 -334 -146 -511 -318 -141 -136 -173 -178 -163
-217 10 -38 208 -242 314 -322 167 -126 364 -203 520 -203 143 0 319 63 477
172 90 61 323 287 348 336 16 32 15 35 -8 75 -34 57 -234 251 -327 316 -93 65
-203 122 -295 151 -101 32 -256 36 -355 10z m306 -40 c106 -27 240 -93 344
-170 78 -57 320 -292 320 -310 0 -18 -242 -253 -320 -310 -220 -161 -435 -220
-630 -171 -108 26 -245 94 -352 172 -77 57 -318 291 -318 309 0 18 241 252
320 310 218 161 438 220 636 170z"/>
<path d="M1405 1847 c-109 -37 -186 -103 -232 -202 -24 -51 -28 -73 -28 -145
0 -72 4 -94 28 -146 36 -77 104 -145 182 -181 51 -24 73 -28 145 -28 72 0 94
4 145 28 78 36 146 104 182 181 24 52 28 74 28 146 0 72 -4 94 -28 146 -57
123 -177 204 -311 211 -41 1 -88 -3 -111 -10z m230 -61 c86 -39 147 -113 171
-206 38 -150 -28 -294 -171 -367 -72 -38 -187 -38 -266 -2 -199 93 -248 356
-95 512 93 94 237 119 361 63z"/>
<path d="M1414 1768 c-54 -17 -125 -80 -158 -138 -27 -48 -31 -65 -31 -130 0
-65 4 -82 31 -130 34 -61 105 -121 164 -139 216 -65 419 152 339 364 -53 140
-207 217 -345 173z m160 -39 c21 -6 60 -31 87 -56 106 -99 106 -247 0 -346
-98 -91 -232 -89 -328 5 -95 93 -98 231 -6 329 66 71 152 94 247 68z"/>
</g>
</svg>
